<svg width="93" height="36" viewBox="0 0 93 36" fill="none" xmlns="http://www.w3.org/2000/svg">
<path d="M10.7 1.5C10.6467 2.08667 10.6067 2.65333 10.58 3.2C10.5667 3.74667 10.56 4.16667 10.56 4.46C10.56 4.72667 10.5667 4.98 10.58 5.22C10.5933 5.46 10.6067 5.66 10.62 5.82H10.16C10.0267 4.84667 9.82 4.08 9.54 3.52C9.26 2.94667 8.89333 2.54667 8.44 2.32C8 2.08 7.48 1.96 6.88 1.96H6.06C5.67333 1.96 5.38 1.99333 5.18 2.06C4.98 2.12667 4.84667 2.26 4.78 2.46C4.71333 2.66 4.68 2.96667 4.68 3.38V13.78C4.68 14.1933 4.71333 14.5 4.78 14.7C4.84667 14.9 4.98 15.0333 5.18 15.1C5.38 15.1667 5.67333 15.2 6.06 15.2H7.04C7.64 15.2 8.16667 15.0733 8.62 14.82C9.08667 14.5533 9.48 14.1067 9.8 13.48C10.1333 12.8533 10.3867 12.0067 10.56 10.94H11.02C10.98 11.3667 10.96 11.9267 10.96 12.62C10.96 12.9267 10.9667 13.36 10.98 13.92C10.9933 14.48 11.0333 15.06 11.1 15.66C10.42 15.6333 9.65333 15.62 8.8 15.62C7.94667 15.6067 7.18667 15.6 6.52 15.6C6.18667 15.6 5.76 15.6 5.24 15.6C4.72 15.6 4.16 15.6067 3.56 15.62C2.96 15.62 2.35333 15.6267 1.74 15.64C1.12667 15.64 0.546667 15.6467 0 15.66V15.26C0.426667 15.2333 0.746667 15.18 0.96 15.1C1.17333 15.02 1.31333 14.86 1.38 14.62C1.46 14.38 1.5 14.02 1.5 13.54V3.62C1.5 3.12667 1.46 2.76667 1.38 2.54C1.31333 2.3 1.16667 2.14 0.94 2.06C0.726667 1.96667 0.413333 1.91333 0 1.9V1.5C0.546667 1.51333 1.12667 1.52667 1.74 1.54C2.35333 1.54 2.96 1.54667 3.56 1.56C4.16 1.56 4.72 1.56 5.24 1.56C5.76 1.56 6.18667 1.56 6.52 1.56C7.13333 1.56 7.82667 1.56 8.6 1.56C9.38667 1.54667 10.0867 1.52667 10.7 1.5ZM7.58 8.34C7.58 8.34 7.58 8.40667 7.58 8.54C7.58 8.67333 7.58 8.74 7.58 8.74H4.08C4.08 8.74 4.08 8.67333 4.08 8.54C4.08 8.40667 4.08 8.34 4.08 8.34H7.58ZM8.16 5.7C8.10667 6.46 8.08 7.04 8.08 7.44C8.09333 7.84 8.1 8.20667 8.1 8.54C8.1 8.87333 8.10667 9.24 8.12 9.64C8.13333 10.04 8.16667 10.62 8.22 11.38H7.76C7.69333 10.9133 7.56667 10.48 7.38 10.08C7.20667 9.68 6.95333 9.36 6.62 9.12C6.28667 8.86667 5.85333 8.74 5.32 8.74V8.34C5.72 8.34 6.06 8.26 6.34 8.1C6.62 7.92667 6.84667 7.70667 7.02 7.44C7.20667 7.16 7.35333 6.86667 7.46 6.56C7.56667 6.25333 7.64667 5.96667 7.7 5.7H8.16Z" fill="white"/>
<path d="M19.3558 5.04C19.7824 5.04 20.1291 5.13333 20.3958 5.32C20.6624 5.49333 20.8558 5.72 20.9758 6C21.1091 6.28 21.1758 6.57333 21.1758 6.88C21.1758 7.37333 21.0291 7.78 20.7358 8.1C20.4558 8.40667 20.0824 8.56 19.6158 8.56C19.1491 8.56 18.7824 8.44667 18.5158 8.22C18.2624 7.98 18.1358 7.66667 18.1358 7.28C18.1358 6.90667 18.2158 6.6 18.3758 6.36C18.5491 6.10667 18.7624 5.89333 19.0158 5.72C18.8291 5.66667 18.6424 5.67333 18.4558 5.74C18.2024 5.78 17.9624 5.88667 17.7358 6.06C17.5091 6.22 17.3158 6.42667 17.1558 6.68C16.9958 6.92 16.8691 7.18667 16.7758 7.48C16.6824 7.76 16.6358 8.03333 16.6358 8.3V13.6C16.6358 14.24 16.7891 14.6733 17.0958 14.9C17.4158 15.1267 17.8891 15.24 18.5158 15.24V15.66C18.2091 15.6467 17.7624 15.6333 17.1758 15.62C16.5891 15.5933 15.9758 15.58 15.3358 15.58C14.8024 15.58 14.2624 15.5933 13.7158 15.62C13.1691 15.6333 12.7558 15.6467 12.4758 15.66V15.24C12.9424 15.24 13.2691 15.14 13.4558 14.94C13.6558 14.74 13.7558 14.36 13.7558 13.8V7.5C13.7558 6.9 13.6624 6.46 13.4758 6.18C13.3024 5.88667 12.9691 5.74 12.4758 5.74V5.32C12.9024 5.36 13.3158 5.38 13.7158 5.38C14.2758 5.38 14.7958 5.36 15.2758 5.32C15.7691 5.26667 16.2224 5.19333 16.6358 5.1V6.96C16.7958 6.6 17.0091 6.27333 17.2758 5.98C17.5424 5.68667 17.8491 5.46 18.1958 5.3C18.5424 5.12667 18.9291 5.04 19.3558 5.04Z" fill="white"/>
<path d="M24.4117 0.16C24.9717 0.16 25.4117 0.300001 25.7317 0.580001C26.0651 0.846667 26.2317 1.22 26.2317 1.7C26.2317 2.18 26.0651 2.56 25.7317 2.84C25.4117 3.10667 24.9717 3.24 24.4117 3.24C23.8517 3.24 23.4051 3.10667 23.0717 2.84C22.7517 2.56 22.5917 2.18 22.5917 1.7C22.5917 1.22 22.7517 0.846667 23.0717 0.580001C23.4051 0.300001 23.8517 0.16 24.4117 0.16ZM25.9717 5.1V13.8C25.9717 14.36 26.0651 14.74 26.2517 14.94C26.4517 15.14 26.7851 15.24 27.2517 15.24V15.66C27.0117 15.6467 26.6384 15.6333 26.1317 15.62C25.6251 15.5933 25.1117 15.58 24.5917 15.58C24.0717 15.58 23.5451 15.5933 23.0117 15.62C22.4784 15.6333 22.0784 15.6467 21.8117 15.66V15.24C22.2784 15.24 22.6051 15.14 22.7917 14.94C22.9917 14.74 23.0917 14.36 23.0917 13.8V7.5C23.0917 6.9 22.9984 6.46 22.8117 6.18C22.6384 5.88667 22.3051 5.74 21.8117 5.74V5.32C22.2384 5.36 22.6517 5.38 23.0517 5.38C23.6117 5.38 24.1317 5.36 24.6117 5.32C25.1051 5.26667 25.5584 5.19333 25.9717 5.1Z" fill="white"/>
<path d="M32.1803 0V13.8C32.1803 14.36 32.267 14.74 32.4403 14.94C32.627 15.14 32.9403 15.24 33.3803 15.24V15.66C33.127 15.6467 32.7536 15.6333 32.2603 15.62C31.7803 15.5933 31.287 15.58 30.7803 15.58C30.2603 15.58 29.7336 15.5933 29.2003 15.62C28.6803 15.6333 28.287 15.6467 28.0203 15.66V15.24C28.487 15.24 28.8136 15.14 29.0003 14.94C29.2003 14.74 29.3003 14.36 29.3003 13.8V2.4C29.3003 1.8 29.207 1.36 29.0203 1.08C28.847 0.786667 28.5136 0.64 28.0203 0.64V0.220001C28.447 0.26 28.8603 0.28 29.2603 0.28C29.807 0.28 30.327 0.26 30.8203 0.220001C31.3136 0.166667 31.767 0.0933337 32.1803 0ZM38.7003 5.32V5.72C38.287 5.8 37.8736 5.97333 37.4603 6.24C37.047 6.50667 36.627 6.84667 36.2003 7.26L34.6603 8.86L34.8603 8.48L38.2803 14.2C38.427 14.44 38.5803 14.6533 38.7403 14.84C38.9003 15.0267 39.0936 15.16 39.3203 15.24V15.66C39.1203 15.6467 38.8203 15.6333 38.4203 15.62C38.0203 15.5933 37.6203 15.58 37.2203 15.58C36.727 15.58 36.2336 15.5933 35.7403 15.62C35.247 15.6333 34.8803 15.6467 34.6403 15.66V15.24C34.907 15.24 35.087 15.18 35.1803 15.06C35.2736 14.9267 35.2603 14.76 35.1403 14.56L33.1603 10.98C33.0003 10.7267 32.8403 10.5667 32.6803 10.5C32.5336 10.42 32.3336 10.3733 32.0803 10.36V9.98C32.3603 9.95333 32.6003 9.90667 32.8003 9.84C33.0136 9.77333 33.207 9.64667 33.3803 9.46L34.9003 7.98C35.3536 7.55333 35.5803 7.17333 35.5803 6.84C35.5803 6.50667 35.4336 6.24 35.1403 6.04C34.8603 5.84 34.487 5.73333 34.0203 5.72V5.32C34.3936 5.33333 34.8003 5.34667 35.2403 5.36C35.6803 5.37333 36.0536 5.38 36.3603 5.38C36.627 5.38 36.907 5.38 37.2003 5.38C37.507 5.36667 37.7936 5.36 38.0603 5.36C38.327 5.34667 38.5403 5.33333 38.7003 5.32Z" fill="white"/>
<path d="M56.2811 1.5C56.2278 2.18 56.1878 2.83333 56.1611 3.46C56.1478 4.08667 56.1411 4.56667 56.1411 4.9C56.1411 5.19333 56.1478 5.47333 56.1611 5.74C56.1744 6.00667 56.1878 6.23333 56.2011 6.42H55.7411C55.5278 5.3 55.2544 4.41333 54.9211 3.76C54.6011 3.10667 54.2144 2.64667 53.7611 2.38C53.3078 2.1 52.7744 1.96 52.1611 1.96H51.7011V13.38C51.7011 13.9133 51.7544 14.3133 51.8611 14.58C51.9811 14.8467 52.1944 15.0267 52.5011 15.12C52.8078 15.2 53.2544 15.2467 53.8411 15.26V15.66C53.4278 15.6467 52.8744 15.6333 52.1811 15.62C51.5011 15.6067 50.7878 15.6 50.0411 15.6C49.3078 15.6 48.6144 15.6067 47.9611 15.62C47.3078 15.6333 46.7811 15.6467 46.3811 15.66V15.26C46.9811 15.2467 47.4344 15.2 47.7411 15.12C48.0478 15.0267 48.2544 14.8467 48.3611 14.58C48.4678 14.3133 48.5211 13.9133 48.5211 13.38V1.96H48.0811C47.4678 1.96 46.9344 2.1 46.4811 2.38C46.0278 2.64667 45.6411 3.10667 45.3211 3.76C45.0011 4.4 44.7211 5.28667 44.4811 6.42H44.0211C44.0478 6.23333 44.0611 6.00667 44.0611 5.74C44.0744 5.47333 44.0811 5.19333 44.0811 4.9C44.0811 4.56667 44.0678 4.08667 44.0411 3.46C44.0278 2.83333 43.9944 2.18 43.9411 1.5C44.5544 1.51333 45.2211 1.52667 45.9411 1.54C46.6744 1.55333 47.4078 1.56 48.1411 1.56C48.8744 1.56 49.5344 1.56 50.1211 1.56C50.7211 1.56 51.3811 1.56 52.1011 1.56C52.8344 1.56 53.5678 1.55333 54.3011 1.54C55.0344 1.52667 55.6944 1.51333 56.2811 1.5Z" fill="white"/>
<path d="M10.7 21.5C10.6467 22.0867 10.6067 22.6533 10.58 23.2C10.5667 23.7467 10.56 24.1667 10.56 24.46C10.56 24.7267 10.5667 24.98 10.58 25.22C10.5933 25.46 10.6067 25.66 10.62 25.82H10.16C10.0267 24.8467 9.82 24.08 9.54 23.52C9.26 22.9467 8.89333 22.5467 8.44 22.32C8 22.08 7.48 21.96 6.88 21.96H6.06C5.67333 21.96 5.38 21.9933 5.18 22.06C4.98 22.1267 4.84667 22.26 4.78 22.46C4.71333 22.66 4.68 22.9667 4.68 23.38V33.78C4.68 34.1933 4.71333 34.5 4.78 34.7C4.84667 34.9 4.98 35.0333 5.18 35.1C5.38 35.1667 5.67333 35.2 6.06 35.2H7.04C7.64 35.2 8.16667 35.0733 8.62 34.82C9.08667 34.5533 9.48 34.1067 9.8 33.48C10.1333 32.8533 10.3867 32.0067 10.56 30.94H11.02C10.98 31.3667 10.96 31.9267 10.96 32.62C10.96 32.9267 10.9667 33.36 10.98 33.92C10.9933 34.48 11.0333 35.06 11.1 35.66C10.42 35.6333 9.65333 35.62 8.8 35.62C7.94667 35.6067 7.18667 35.6 6.52 35.6C6.18667 35.6 5.76 35.6 5.24 35.6C4.72 35.6 4.16 35.6067 3.56 35.62C2.96 35.62 2.35333 35.6267 1.74 35.64C1.12667 35.64 0.546667 35.6467 0 35.66V35.26C0.426667 35.2333 0.746667 35.18 0.96 35.1C1.17333 35.02 1.31333 34.86 1.38 34.62C1.46 34.38 1.5 34.02 1.5 33.54V23.62C1.5 23.1267 1.46 22.7667 1.38 22.54C1.31333 22.3 1.16667 22.14 0.94 22.06C0.726667 21.9667 0.413333 21.9133 0 21.9V21.5C0.546667 21.5133 1.12667 21.5267 1.74 21.54C2.35333 21.54 2.96 21.5467 3.56 21.56C4.16 21.56 4.72 21.56 5.24 21.56C5.76 21.56 6.18667 21.56 6.52 21.56C7.13333 21.56 7.82667 21.56 8.6 21.56C9.38667 21.5467 10.0867 21.5267 10.7 21.5ZM7.58 28.34C7.58 28.34 7.58 28.4067 7.58 28.54C7.58 28.6733 7.58 28.74 7.58 28.74H4.08C4.08 28.74 4.08 28.6733 4.08 28.54C4.08 28.4067 4.08 28.34 4.08 28.34H7.58ZM8.16 25.7C8.10667 26.46 8.08 27.04 8.08 27.44C8.09333 27.84 8.1 28.2067 8.1 28.54C8.1 28.8733 8.10667 29.24 8.12 29.64C8.13333 30.04 8.16667 30.62 8.22 31.38H7.76C7.69333 30.9133 7.56667 30.48 7.38 30.08C7.20667 29.68 6.95333 29.36 6.62 29.12C6.28667 28.8667 5.85333 28.74 5.32 28.74V28.34C5.72 28.34 6.06 28.26 6.34 28.1C6.62 27.9267 6.84667 27.7067 7.02 27.44C7.20667 27.16 7.35333 26.8667 7.46 26.56C7.56667 26.2533 7.64667 25.9667 7.7 25.7H8.16Z" fill="white"/>
<path d="M22.2572 20V33.46C22.2572 34.06 22.3505 34.5067 22.5372 34.8C22.7239 35.08 23.0572 35.22 23.5372 35.22V35.64C23.1239 35.6 22.7105 35.58 22.2972 35.58C21.7372 35.58 21.2105 35.6 20.7172 35.64C20.2372 35.68 19.7905 35.7533 19.3772 35.86V22.4C19.3772 21.8 19.2839 21.36 19.0972 21.08C18.9239 20.7867 18.5905 20.64 18.0972 20.64V20.22C18.5239 20.26 18.9372 20.28 19.3372 20.28C19.8839 20.28 20.4039 20.26 20.8972 20.22C21.3905 20.1667 21.8439 20.0933 22.2572 20ZM17.1572 25.04C17.7439 25.04 18.2572 25.14 18.6972 25.34C19.1505 25.5267 19.5039 25.8467 19.7572 26.3L19.5172 26.52C19.3439 26.2 19.1105 25.9733 18.8172 25.84C18.5372 25.6933 18.2372 25.62 17.9172 25.62C17.2372 25.62 16.6972 26.02 16.2972 26.82C15.8972 27.6067 15.7039 28.8267 15.7172 30.48C15.7172 31.6133 15.7905 32.52 15.9372 33.2C16.0972 33.8667 16.3172 34.3467 16.5972 34.64C16.8905 34.9333 17.2239 35.08 17.5972 35.08C18.0505 35.08 18.4572 34.9 18.8172 34.54C19.1772 34.18 19.3705 33.6933 19.3972 33.08L19.4972 33.78C19.2972 34.4867 18.9705 35.0267 18.5172 35.4C18.0772 35.76 17.4972 35.94 16.7772 35.94C15.9905 35.94 15.2839 35.7467 14.6572 35.36C14.0439 34.9733 13.5639 34.38 13.2172 33.58C12.8705 32.7667 12.6972 31.72 12.6972 30.44C12.6972 29.2267 12.8905 28.2267 13.2772 27.44C13.6639 26.64 14.1905 26.04 14.8572 25.64C15.5372 25.24 16.3039 25.04 17.1572 25.04Z" fill="white"/>
<path d="M34.3303 25.1V33.48C34.3303 34.08 34.4236 34.5267 34.6103 34.82C34.797 35.1 35.1303 35.24 35.6103 35.24V35.66C35.197 35.62 34.7836 35.6 34.3703 35.6C33.8103 35.6 33.2903 35.62 32.8103 35.66C32.3303 35.7 31.877 35.7733 31.4503 35.88V34.08C31.1303 34.7467 30.6836 35.2267 30.1103 35.52C29.5503 35.8 28.9236 35.94 28.2303 35.94C27.6703 35.94 27.217 35.8667 26.8703 35.72C26.5236 35.5733 26.2503 35.3867 26.0503 35.16C25.8236 34.9067 25.6636 34.5733 25.5703 34.16C25.477 33.7467 25.4303 33.2133 25.4303 32.56V27.5C25.4303 26.9 25.337 26.46 25.1503 26.18C24.977 25.8867 24.6436 25.74 24.1503 25.74V25.32C24.577 25.36 24.9903 25.38 25.3903 25.38C25.9503 25.38 26.4703 25.36 26.9503 25.32C27.4436 25.2667 27.897 25.1933 28.3103 25.1V33.38C28.3103 33.7133 28.337 34.0067 28.3903 34.26C28.457 34.5133 28.577 34.7133 28.7503 34.86C28.9236 34.9933 29.177 35.06 29.5103 35.06C29.8703 35.06 30.1903 34.96 30.4703 34.76C30.7636 34.56 30.997 34.2867 31.1703 33.94C31.357 33.58 31.4503 33.18 31.4503 32.74V27.5C31.4503 26.9 31.357 26.46 31.1703 26.18C30.997 25.8867 30.6636 25.74 30.1703 25.74V25.32C30.597 25.36 31.0103 25.38 31.4103 25.38C31.9703 25.38 32.4903 25.36 32.9703 25.32C33.4636 25.2667 33.917 25.1933 34.3303 25.1Z" fill="white"/>
<path d="M41.6992 25.04C42.2192 25.04 42.6926 25.1 43.1192 25.22C43.5592 25.3267 43.9192 25.4667 44.1992 25.64C44.5459 25.8533 44.8126 26.12 44.9992 26.44C45.1992 26.7467 45.2992 27.1067 45.2992 27.52C45.2992 27.9867 45.1526 28.3733 44.8592 28.68C44.5659 28.9733 44.1859 29.12 43.7192 29.12C43.2526 29.12 42.8792 28.9867 42.5992 28.72C42.3192 28.4533 42.1792 28.0933 42.1792 27.64C42.1792 27.2133 42.3126 26.86 42.5792 26.58C42.8459 26.2867 43.1526 26.0933 43.4992 26C43.3926 25.8667 43.2326 25.7533 43.0192 25.66C42.8059 25.5667 42.5659 25.52 42.2992 25.52C41.8859 25.52 41.5192 25.64 41.1992 25.88C40.8926 26.12 40.6326 26.4533 40.4192 26.88C40.2059 27.3067 40.0392 27.8067 39.9192 28.38C39.8126 28.9533 39.7592 29.58 39.7592 30.26C39.7592 31.2867 39.8859 32.0933 40.1392 32.68C40.4059 33.2667 40.7392 33.68 41.1392 33.92C41.5526 34.16 41.9792 34.28 42.4192 34.28C42.6726 34.28 42.9459 34.24 43.2392 34.16C43.5459 34.08 43.8526 33.92 44.1592 33.68C44.4792 33.44 44.7726 33.1 45.0392 32.66L45.3792 32.78C45.2326 33.2733 44.9926 33.7667 44.6592 34.26C44.3259 34.7533 43.8926 35.16 43.3592 35.48C42.8259 35.7867 42.1726 35.94 41.3992 35.94C40.5326 35.94 39.7459 35.7533 39.0392 35.38C38.3459 34.9933 37.7859 34.4067 37.3592 33.62C36.9459 32.82 36.7392 31.7933 36.7392 30.54C36.7392 29.34 36.9526 28.3333 37.3792 27.52C37.8192 26.6933 38.4126 26.0733 39.1592 25.66C39.9059 25.2467 40.7526 25.04 41.6992 25.04Z" fill="white"/>
<path d="M49.1811 35.8C48.5811 35.8 48.0811 35.6867 47.6811 35.46C47.2811 35.2333 46.9878 34.9333 46.8011 34.56C46.6144 34.1733 46.5211 33.7533 46.5211 33.3C46.5211 32.7267 46.6478 32.26 46.9011 31.9C47.1678 31.54 47.5078 31.2467 47.9211 31.02C48.3344 30.7933 48.7678 30.6067 49.2211 30.46C49.6878 30.3133 50.1278 30.1733 50.5411 30.04C50.9678 29.8933 51.3078 29.7267 51.5611 29.54C51.8278 29.34 51.9611 29.0867 51.9611 28.78V27.22C51.9611 26.8733 51.9011 26.5667 51.7811 26.3C51.6744 26.02 51.5011 25.8067 51.2611 25.66C51.0344 25.5133 50.7344 25.44 50.3611 25.44C50.0944 25.44 49.8278 25.48 49.5611 25.56C49.2944 25.6267 49.0744 25.7467 48.9011 25.92C49.2744 26.0533 49.5611 26.26 49.7611 26.54C49.9744 26.8067 50.0811 27.1133 50.0811 27.46C50.0811 27.9133 49.9211 28.2733 49.6011 28.54C49.2944 28.8067 48.9278 28.94 48.5011 28.94C48.0211 28.94 47.6544 28.7933 47.4011 28.5C47.1611 28.1933 47.0411 27.8267 47.0411 27.4C47.0411 27.0133 47.1344 26.6933 47.3211 26.44C47.5211 26.1867 47.7944 25.9467 48.1411 25.72C48.5144 25.5067 48.9611 25.34 49.4811 25.22C50.0144 25.1 50.5878 25.04 51.2011 25.04C51.8144 25.04 52.3678 25.1067 52.8611 25.24C53.3544 25.36 53.7678 25.5867 54.1011 25.92C54.4078 26.2267 54.6078 26.6067 54.7011 27.06C54.7944 27.5 54.8411 28.06 54.8411 28.74V34.18C54.8411 34.5133 54.8744 34.7467 54.9411 34.88C55.0078 35 55.1211 35.06 55.2811 35.06C55.4011 35.06 55.5144 35.0267 55.6211 34.96C55.7411 34.8933 55.8678 34.8133 56.0011 34.72L56.2011 35.06C55.9211 35.3 55.5944 35.4867 55.2211 35.62C54.8611 35.74 54.4544 35.8 54.0011 35.8C53.5078 35.8 53.1144 35.7333 52.8211 35.6C52.5278 35.4533 52.3144 35.26 52.1811 35.02C52.0611 34.78 52.0011 34.5 52.0011 34.18C51.6811 34.6867 51.2944 35.0867 50.8411 35.38C50.3878 35.66 49.8344 35.8 49.1811 35.8ZM50.6011 34.52C50.8678 34.52 51.1078 34.46 51.3211 34.34C51.5478 34.2067 51.7611 33.9933 51.9611 33.7V29.6C51.8411 29.8 51.6744 29.98 51.4611 30.14C51.2478 30.3 51.0211 30.4667 50.7811 30.64C50.5411 30.8 50.3078 30.98 50.0811 31.18C49.8678 31.38 49.6944 31.6267 49.5611 31.92C49.4278 32.2133 49.3611 32.5667 49.3611 32.98C49.3611 33.5 49.4744 33.8867 49.7011 34.14C49.9278 34.3933 50.2278 34.52 50.6011 34.52Z" fill="white"/>
<path d="M60.8327 22.04V25.32H63.1927V25.72H60.8327V33.8C60.8327 34.2 60.906 34.4867 61.0527 34.66C61.1993 34.82 61.4193 34.9 61.7127 34.9C61.9527 34.9 62.1927 34.8133 62.4327 34.64C62.6727 34.4533 62.886 34.14 63.0727 33.7L63.4127 33.88C63.1993 34.48 62.8727 34.9733 62.4327 35.36C62.006 35.7467 61.4193 35.94 60.6727 35.94C60.2327 35.94 59.846 35.88 59.5127 35.76C59.1793 35.6533 58.8993 35.4867 58.6727 35.26C58.3793 34.9667 58.186 34.6067 58.0927 34.18C57.9993 33.74 57.9527 33.1733 57.9527 32.48V25.72H56.2727V25.32H57.9527V22.68C58.5127 22.68 59.026 22.6333 59.4927 22.54C59.9727 22.4333 60.4193 22.2667 60.8327 22.04Z" fill="white"/>
<path d="M66.4039 20.16C66.9639 20.16 67.4039 20.3 67.7239 20.58C68.0572 20.8467 68.2239 21.22 68.2239 21.7C68.2239 22.18 68.0572 22.56 67.7239 22.84C67.4039 23.1067 66.9639 23.24 66.4039 23.24C65.8439 23.24 65.3972 23.1067 65.0639 22.84C64.7439 22.56 64.5839 22.18 64.5839 21.7C64.5839 21.22 64.7439 20.8467 65.0639 20.58C65.3972 20.3 65.8439 20.16 66.4039 20.16ZM67.9639 25.1V33.8C67.9639 34.36 68.0572 34.74 68.2439 34.94C68.4439 35.14 68.7772 35.24 69.2439 35.24V35.66C69.0039 35.6467 68.6306 35.6333 68.1239 35.62C67.6172 35.5933 67.1039 35.58 66.5839 35.58C66.0639 35.58 65.5372 35.5933 65.0039 35.62C64.4706 35.6333 64.0706 35.6467 63.8039 35.66V35.24C64.2706 35.24 64.5972 35.14 64.7839 34.94C64.9839 34.74 65.0839 34.36 65.0839 33.8V27.5C65.0839 26.9 64.9906 26.46 64.8039 26.18C64.6306 25.8867 64.2972 25.74 63.8039 25.74V25.32C64.2306 25.36 64.6439 25.38 65.0439 25.38C65.6039 25.38 66.1239 25.36 66.6039 25.32C67.0972 25.2667 67.5506 25.1933 67.9639 25.1Z" fill="white"/>
<path d="M75.2725 25.04C76.2458 25.04 77.0992 25.22 77.8325 25.58C78.5658 25.94 79.1392 26.52 79.5525 27.32C79.9658 28.12 80.1725 29.18 80.1725 30.5C80.1725 31.82 79.9658 32.88 79.5525 33.68C79.1392 34.4667 78.5658 35.04 77.8325 35.4C77.0992 35.76 76.2458 35.94 75.2725 35.94C74.3258 35.94 73.4792 35.76 72.7325 35.4C71.9992 35.04 71.4192 34.4667 70.9925 33.68C70.5792 32.88 70.3725 31.82 70.3725 30.5C70.3725 29.18 70.5792 28.12 70.9925 27.32C71.4192 26.52 71.9992 25.94 72.7325 25.58C73.4792 25.22 74.3258 25.04 75.2725 25.04ZM75.2725 25.44C74.7392 25.44 74.2925 25.84 73.9325 26.64C73.5725 27.4267 73.3925 28.7133 73.3925 30.5C73.3925 32.2867 73.5725 33.5733 73.9325 34.36C74.2925 35.1467 74.7392 35.54 75.2725 35.54C75.8192 35.54 76.2658 35.1467 76.6125 34.36C76.9725 33.5733 77.1525 32.2867 77.1525 30.5C77.1525 28.7133 76.9725 27.4267 76.6125 26.64C76.2658 25.84 75.8192 25.44 75.2725 25.44Z" fill="white"/>
<path d="M88.8611 25.04C89.4211 25.04 89.8744 25.1133 90.2211 25.26C90.5811 25.3933 90.8611 25.58 91.0611 25.82C91.2744 26.0733 91.4278 26.4 91.5211 26.8C91.6278 27.2 91.6811 27.74 91.6811 28.42V33.8C91.6811 34.36 91.7744 34.74 91.9611 34.94C92.1611 35.14 92.4944 35.24 92.9611 35.24V35.66C92.7078 35.6467 92.3278 35.6333 91.8211 35.62C91.3144 35.5933 90.8144 35.58 90.3211 35.58C89.8144 35.58 89.3144 35.5933 88.8211 35.62C88.3411 35.6333 87.9744 35.6467 87.7211 35.66V35.24C88.1211 35.24 88.4011 35.14 88.5611 34.94C88.7211 34.74 88.8011 34.36 88.8011 33.8V27.58C88.8011 27.2467 88.7678 26.96 88.7011 26.72C88.6344 26.4667 88.5144 26.2733 88.3411 26.14C88.1678 25.9933 87.9078 25.92 87.5611 25.92C87.2011 25.92 86.8678 26.02 86.5611 26.22C86.2678 26.42 86.0278 26.7 85.8411 27.06C85.6678 27.4067 85.5811 27.8 85.5811 28.24V33.8C85.5811 34.36 85.6611 34.74 85.8211 34.94C85.9944 35.14 86.2744 35.24 86.6611 35.24V35.66C86.4211 35.6467 86.0678 35.6333 85.6011 35.62C85.1478 35.5933 84.6744 35.58 84.1811 35.58C83.6744 35.58 83.1544 35.5933 82.6211 35.62C82.0878 35.6333 81.6878 35.6467 81.4211 35.66V35.24C81.8878 35.24 82.2144 35.14 82.4011 34.94C82.6011 34.74 82.7011 34.36 82.7011 33.8V27.5C82.7011 26.9 82.6078 26.46 82.4211 26.18C82.2478 25.8867 81.9144 25.74 81.4211 25.74V25.32C81.8478 25.36 82.2611 25.38 82.6611 25.38C83.2211 25.38 83.7411 25.36 84.2211 25.32C84.7144 25.2667 85.1678 25.1933 85.5811 25.1V26.9C85.9144 26.22 86.3678 25.74 86.9411 25.46C87.5144 25.18 88.1544 25.04 88.8611 25.04Z" fill="white"/>
</svg>
