<svg width="35" height="20" viewBox="0 0 35 20" fill="none" xmlns="http://www.w3.org/2000/svg">
<rect x="1" y="1" width="32.2857" height="18" rx="7" stroke="#8B8B8B" stroke-width="2"/>
<path d="M6.13033 14V5.27273H7.71129V12.6747H11.555V14H6.13033ZM17.8853 7.45455L15.5543 14H13.8498L11.5188 7.45455H13.1637L14.668 12.3168H14.7362L16.2447 7.45455H17.8853ZM24.9464 14.1193C24.3782 14.1193 23.8697 14.0128 23.4208 13.7997C22.9719 13.5838 22.6154 13.2884 22.3512 12.9134C22.0898 12.5384 21.9506 12.1094 21.9336 11.6264H23.4677C23.4961 11.9844 23.6509 12.277 23.9322 12.5043C24.2134 12.7287 24.5515 12.8409 24.9464 12.8409C25.256 12.8409 25.5316 12.7699 25.7731 12.6278C26.0146 12.4858 26.2049 12.2884 26.3441 12.0355C26.4833 11.7827 26.5515 11.4943 26.5487 11.1705C26.5515 10.8409 26.4819 10.5483 26.3398 10.2926C26.1978 10.0369 26.0032 9.83665 25.756 9.69176C25.5089 9.54403 25.2248 9.47017 24.9038 9.47017C24.6424 9.46733 24.3853 9.51562 24.1325 9.61506C23.8796 9.71449 23.6793 9.84517 23.5316 10.0071L22.104 9.77273L22.56 5.27273H27.6225V6.59375H23.8683L23.6168 8.90767H23.668C23.8299 8.71733 24.0586 8.55966 24.354 8.43466C24.6495 8.30682 24.9734 8.2429 25.3256 8.2429C25.854 8.2429 26.3256 8.3679 26.7404 8.6179C27.1552 8.86506 27.4819 9.20597 27.7205 9.64062C27.9592 10.0753 28.0785 10.5724 28.0785 11.1321C28.0785 11.7088 27.945 12.223 27.6779 12.6747C27.4137 13.1236 27.0458 13.4773 26.5742 13.7358C26.1055 13.9915 25.5629 14.1193 24.9464 14.1193Z" fill="#8B8B8B"/>
</svg>
